<svg width="450" height="450" viewBox="0 0 450 450" fill="none" xmlns="http://www.w3.org/2000/svg">
<path d="M438.75 241.787C437.08 238.799 433.389 237.744 430.401 239.326L397.266 257.607L384.258 264.815L246.094 340.752C236.865 345.85 225.264 342.422 220.254 333.281C217.793 328.799 217.266 323.701 218.672 318.779C220.078 313.857 223.33 309.815 227.813 307.441L397.442 214.19L412.207 206.104C415.196 204.434 416.25 200.742 414.668 197.754C412.998 194.766 409.307 193.711 406.319 195.293L398.848 199.424L377.227 98.4376C376.172 92.9883 372.656 88.418 367.559 86.045C362.461 83.6719 356.748 83.8477 351.826 86.5723L138.076 203.906L108.281 173.32C106.348 171.299 103.36 170.859 100.899 172.178L64.5119 192.217C61.5236 193.887 60.469 197.578 62.051 200.566C63.7209 203.555 67.4123 204.609 70.4006 203.027L102.744 185.273L132.451 215.859L215.42 301.201C211.377 304.981 208.389 309.815 206.807 315.352C204.434 323.438 205.401 331.875 209.444 339.17C215.156 349.541 225.879 355.43 236.953 355.43C242.051 355.43 247.237 354.199 251.983 351.563L262.178 345.938C262.705 347.52 263.408 349.102 264.199 350.596C267.979 357.451 274.219 362.461 281.69 364.57C284.414 365.361 287.139 365.713 289.863 365.713C294.697 365.713 299.531 364.482 303.926 362.109C310.781 358.33 315.791 352.178 317.901 344.619C320.098 337.149 319.219 329.238 315.44 322.383C314.649 320.889 313.682 319.482 312.627 318.164L360.176 292.061C360.703 293.643 361.406 295.225 362.197 296.719C365.977 303.574 372.217 308.584 379.688 310.693C382.412 311.484 385.137 311.836 387.862 311.836C392.696 311.836 397.53 310.606 401.924 308.232C408.78 304.453 413.789 298.301 415.899 290.742C418.096 283.272 417.217 275.361 413.438 268.506C412.647 267.012 411.68 265.606 410.625 264.287L436.289 250.225C439.365 248.467 440.42 244.775 438.75 241.787ZM346.905 121.465C350.244 120.762 353.496 122.871 354.199 126.211L368.526 192.92C369.229 196.26 367.119 199.512 363.78 200.215C363.34 200.303 362.901 200.391 362.461 200.391C359.649 200.391 357.1 198.457 356.485 195.557L342.158 128.848C341.455 125.42 343.565 122.168 346.905 121.465Z" fill="#3B4652"/>
<path d="M87.3633 234.229C87.3633 230.801 84.6387 228.076 81.2109 228.076H16.6113C13.1836 228.076 10.459 230.801 10.459 234.229C10.459 237.656 13.1836 240.381 16.6113 240.381H81.2109C84.6387 240.381 87.3633 237.656 87.3633 234.229Z" fill="#F07C01"/>
<path d="M80.5078 319.658C80.5078 323.086 83.2324 325.811 86.6602 325.811H166.377C169.805 325.811 172.529 323.086 172.529 319.658C172.529 316.23 169.805 313.506 166.377 313.506H86.6602C83.2324 313.506 80.5078 316.23 80.5078 319.658Z" fill="#F07C01"/>
<path d="M34.8047 284.326C34.8047 287.754 37.5293 290.479 40.957 290.479H148.799C152.227 290.479 154.951 287.754 154.951 284.326C154.951 280.898 152.227 278.174 148.799 278.174H40.957C37.5293 278.174 34.8047 280.898 34.8047 284.326Z" fill="#F07C01"/>
<path d="M136.934 263.145C140.361 263.145 143.086 260.42 143.086 256.992C143.086 253.564 140.361 250.84 136.934 250.84H108.018C104.59 250.84 101.865 253.564 101.865 256.992C101.865 260.42 104.59 263.145 108.018 263.145H136.934Z" fill="#F07C01"/>
<path d="M186.24 288.281H172.793C169.365 288.281 166.641 291.006 166.641 294.434C166.641 297.861 169.365 300.586 172.793 300.586H186.24C189.668 300.586 192.393 297.861 192.393 294.434C192.393 291.006 189.668 288.281 186.24 288.281Z" fill="#F07C01"/>
<path d="M186.24 341.016H135.264C131.836 341.016 129.111 343.74 129.111 347.168C129.111 350.596 131.836 353.32 135.264 353.32H186.24C189.668 353.32 192.393 350.596 192.393 347.168C192.393 343.74 189.668 341.016 186.24 341.016Z" fill="#F07C01"/>
<path d="M102.217 341.016H63.8086C60.3809 341.016 57.6562 343.74 57.6562 347.168C57.6562 350.596 60.3809 353.32 63.8086 353.32H102.217C105.645 353.32 108.369 350.596 108.369 347.168C108.369 343.74 105.557 341.016 102.217 341.016Z" fill="#F07C01"/>
<path d="M45 310.693H24.7852C21.3574 310.693 18.6328 313.418 18.6328 316.846C18.6328 320.273 21.3574 322.998 24.7852 322.998H45C48.4277 322.998 51.1523 320.273 51.1523 316.846C51.1523 313.418 48.4277 310.693 45 310.693Z" fill="#F07C01"/>
<path d="M63.8086 263.145C67.2363 263.145 69.9609 260.42 69.9609 256.992C69.9609 253.564 67.2363 250.84 63.8086 250.84H53.5254C50.0977 250.84 47.373 253.564 47.373 256.992C47.373 260.42 50.0977 263.145 53.5254 263.145H63.8086Z" fill="#F07C01"/>
</svg>
