<svg width="400" height="400" viewBox="0 0 400 400" fill="none" xmlns="http://www.w3.org/2000/svg">
<path d="M296.016 202.031C294.531 190.547 291.328 179.688 286.641 169.609C285.469 167.109 284.219 164.687 282.891 162.266C263.828 127.969 227.188 104.766 185.156 104.766C178.438 104.766 171.875 105.391 165.469 106.484C113.125 115.859 73.4376 161.563 73.4376 216.563C73.4376 239.297 80.2345 260.469 91.9532 278.125L32.7345 329.219C20.3126 339.922 19.6095 358.906 31.2501 370.547C42.8126 382.109 61.797 381.406 72.5782 369.062L123.672 309.844C141.328 321.562 162.5 328.359 185.234 328.359C211.953 328.359 236.484 318.984 255.703 303.359C280.859 282.891 296.953 251.641 296.953 216.641C296.953 211.641 296.641 206.797 296.016 202.031ZM62.8907 356.25C58.047 361.016 50.3126 361.016 45.547 356.25C40.7813 351.484 40.7813 343.672 45.547 338.906C50.3126 334.141 58.1251 334.141 62.8907 338.906C67.6563 343.672 67.6563 351.406 62.8907 356.25ZM236.016 286.875C222.031 297.031 204.844 303.047 186.328 303.281H183.906C163.828 302.969 145.469 295.937 130.859 284.219C125.938 280.234 121.406 275.781 117.5 270.859C105.547 256.016 98.4376 237.109 98.4376 216.563C98.4376 196.016 105.547 177.109 117.5 162.266C129.453 147.344 146.25 136.562 165.469 132.031C171.797 130.547 178.359 129.766 185.156 129.766C212.5 129.766 236.875 142.422 252.813 162.188C264.766 177.031 271.953 195.938 271.953 216.484C271.953 245.469 257.813 271.094 236.016 286.875Z" fill="#3B4652"/>
<path d="M174.453 151.328H223.828C212.266 144.453 198.984 140.781 185.156 140.781C179.297 140.781 173.516 141.406 167.891 142.734C167.031 142.969 166.25 143.125 165.391 143.359V162.266H174.375V151.328H174.453Z" fill="#3B4652"/>
<path d="M292.422 156.953C293.437 158.672 294.375 160.469 295.234 162.266H306.562V21.1719H255.938V60.9375H216.172V21.1719H165.547V95.3906C172.031 94.375 178.672 93.8281 185.234 93.8281C229.688 93.8281 270.781 118.047 292.422 156.953Z" fill="#3B4652"/>
<path d="M246.953 260.469C256.016 247.812 261.016 232.422 261.016 216.563C261.016 200.547 256.172 185.469 246.953 172.578V260.469Z" fill="#3B4652"/>
<path d="M326.406 162.266V202.031H307.031C307.578 206.797 307.891 211.719 307.891 216.563C307.891 249.375 294.922 280.391 271.953 303.281H377.031V162.266H326.406Z" fill="#3B4652"/>
<path d="M185.391 202.031H145.625V162.266H132.344C130.156 164.453 128.047 166.719 126.094 169.141C115.156 182.734 109.375 199.141 109.375 216.641C109.375 234.141 115.156 250.547 126.016 264.063C129.453 268.359 133.438 272.344 137.734 275.781C151.016 286.406 167.031 292.188 184.063 292.422H184.297C184.531 292.422 184.688 292.422 184.922 292.422H185.469C185.625 292.422 185.703 292.422 185.859 292.422H186.172C201.875 292.188 216.875 287.266 229.609 278.047C231.875 276.406 233.984 274.688 236.016 272.813V162.266H185.391V202.031Z" fill="#F07C01"/>
</svg>
