<svg width="70" height="70" viewBox="0 0 70 70" fill="none" xmlns="http://www.w3.org/2000/svg">
<path d="M35 64.8667C34.4864 64.8613 33.9833 64.7205 33.5417 64.4583L10.2083 50.9833C9.76751 50.7288 9.40097 50.3634 9.14513 49.9234C8.8893 49.4833 8.75307 48.984 8.75 48.475V21.525C8.75307 21.016 8.8893 20.5166 9.14513 20.0766C9.40097 19.6366 9.76751 19.2711 10.2083 19.0166L33.5417 5.54164C33.9851 5.28565 34.488 5.15088 35 5.15088C35.512 5.15088 36.0149 5.28565 36.4583 5.54164L59.7917 19.0166C60.2325 19.2711 60.599 19.6366 60.8549 20.0766C61.1107 20.5166 61.2469 21.016 61.25 21.525V48.475C61.2469 48.984 61.1107 49.4833 60.8549 49.9234C60.599 50.3634 60.2325 50.7288 59.7917 50.9833L36.4583 64.4583C36.0167 64.7205 35.5136 64.8613 35 64.8667ZM14.5833 46.6666L35 58.3333L55.4167 46.6666V23.3333L35 11.6666L14.5833 23.3333V46.6666Z" fill="#F07C01"/>
<path d="M35 55.4167C34.2265 55.4167 33.4846 55.1094 32.9376 54.5624C32.3907 54.0154 32.0834 53.2736 32.0834 52.5V35C32.0835 34.4938 32.2153 33.9964 32.4659 33.5566C32.7164 33.1168 33.0771 32.7498 33.5125 32.4917L48.0959 23.7417C48.7538 23.4443 49.4987 23.4016 50.1864 23.6217C50.8741 23.8419 51.4556 24.3093 51.8185 24.9335C52.1815 25.5578 52.2999 26.2944 52.151 27.0009C52.0022 27.7075 51.5965 28.3337 51.0125 28.7583L37.9167 36.6625V52.5C37.9167 53.2736 37.6094 54.0154 37.0624 54.5624C36.5155 55.1094 35.7736 55.4167 35 55.4167Z" fill="#F07C01"/>
<path d="M35.0001 37.9167C34.4766 37.9165 33.9628 37.7755 33.5126 37.5084L18.9292 28.7583C18.3453 28.3337 17.9396 27.7075 17.7907 27.0009C17.6418 26.2944 17.7603 25.5578 18.1232 24.9335C18.4861 24.3093 19.0677 23.8419 19.7554 23.6217C20.443 23.4016 21.1879 23.4443 21.8459 23.7417L36.4292 32.4917C36.9748 32.8151 37.4 33.3075 37.6406 33.8943C37.8811 34.4811 37.9238 35.1303 37.7623 35.7436C37.6007 36.3569 37.2437 36.9008 36.7452 37.2929C36.2468 37.685 35.6341 37.904 35.0001 37.9167Z" fill="#F07C01"/>
</svg>
